<svg xmlns="http://www.w3.org/2000/svg" width="66" height="61" viewBox="0 0 131.819 122.057">
  <defs>
    <style>
      .cls-1 {
        stroke: #efefef;
        stroke-miterlimit: 10;
        stroke-width: 2px;
      }
    </style>
  </defs>
  <g id="Layer_2" data-name="Layer 2" transform="translate(-129.649 -26.937)">
    <g id="Group_10" data-name="Group 10" transform="translate(130.654 27.995)">
      <g id="Group_1" data-name="Group 1">
        <path id="Path_1" data-name="Path 1" class="cls-1" d="M258.769,74.918a56.884,56.884,0,0,0-17.805-29.143c-10.143-8.976-23.691-15.03-38.149-17.045-14.515-2.023-29.047.158-40.922,6.142a53.645,53.645,0,0,0-23.961,23.533c-5.971,11.474-8.285,25.451-6.878,41.542l0,.012c2.091,11.613,8.133,22.346,17.475,31.04a64.174,64.174,0,0,0,31.451,16.049,54.739,54.739,0,0,0,10.052.947,47.63,47.63,0,0,0,17.81-3.348c9.347-3.761,17.022-10.444,22.813-19.865,2.616,3.846,9.236,3.892,14.353,2.285,4.942-1.553,10.621-5.325,10.383-10.85C260.708,101.414,261.844,87.52,258.769,74.918ZM255.134,116.2c.156,3.37-2.421,8.172-10.2,10.616-5.1,1.6-11.71,1.552-14.17-2.349l-.112-.176-.109.178c-5.775,9.464-13.445,16.171-22.8,19.934a49.693,49.693,0,0,1-27.718,2.387,63.916,63.916,0,0,1-31.322-15.984c-9.3-8.654-15.314-19.336-17.4-30.89C127.717,58.8,149,41.658,162.009,35.1c11.828-5.96,26.307-8.132,40.77-6.117,14.409,2.008,27.909,8.04,38.014,16.983A56.636,56.636,0,0,1,258.518,74.98c3.064,12.558,1.928,26.411-3.377,41.174l-.009.024Z" transform="translate(-130.654 -27.995)"/>
        <path id="Path_2" data-name="Path 2" class="cls-1" d="M242.971,182.1l-.059-.015c-2.768-.033-3.208.37-3.284.719-.087.4.251,1.054,3.67,2.585l.086.038.063-.071a2.371,2.371,0,0,0,.729-1.88A2.054,2.054,0,0,0,242.971,182.1Zm.344,3.013c-3.109-1.4-3.488-2.013-3.435-2.255.035-.158.379-.516,2.78-.516h.217a1.8,1.8,0,0,1,1.043,1.18A2.058,2.058,0,0,1,243.316,185.116Z" transform="translate(-183.259 -102.387)"/>
      </g>
      <g id="Group_2" data-name="Group 2" transform="translate(54.23 76.666)">
        <path id="Path_3" data-name="Path 3" class="cls-1" d="M239.345,183.882h-.032a.294.294,0,0,1-.18-.069c-2.025-.509-3.33-1.744-3.585-3.391a3.7,3.7,0,0,1,1.679-3.7c1.387-.847,3.185-.6,4.933.669l.027.026c1.729,2.261,2.08,4.333.989,5.834l-.209-.153c.718-.988,1.131-2.746-.974-5.509-1.656-1.2-3.342-1.432-4.631-.646a3.439,3.439,0,0,0-1.558,3.44c.239,1.55,1.49,2.712,3.43,3.189l.05.012.028.043a3.571,3.571,0,0,0,1.957-1.267l.193.172A4.042,4.042,0,0,1,239.345,183.882Z" transform="translate(-235.505 -176.224)"/>
      </g>
      <g id="Group_3" data-name="Group 3" transform="translate(99.894 96.468)">
        <path id="Path_4" data-name="Path 4" class="cls-1" d="M324.017,214.642l-.117-.055-.107-.079.128.03.118.054Z" transform="translate(-323.793 -214.508)"/>
      </g>
      <g id="Group_4" data-name="Group 4" transform="translate(99.998 96.406)">
        <path id="Path_5" data-name="Path 5" class="cls-1" d="M324.012,214.657l-.018-.153.116-.115a.156.156,0,0,1,.047.166A.159.159,0,0,1,324.012,214.657Z" transform="translate(-323.994 -214.389)"/>
      </g>
      <g id="Group_5" data-name="Group 5" transform="translate(20.039 28.428)">
        <path id="Path_6" data-name="Path 6" class="cls-1" d="M246.46,98.222a43.863,43.863,0,0,0-21.616-13.477,47.5,47.5,0,0,0-25.587-.063,40.049,40.049,0,0,0-19.062,11.9c-5.578,6.312-9.144,14.379-10.6,23.967-.96,4.032,1.455,16.847,9.5,26.964,6.581,8.279,15.355,12.649,25.388,12.649h.219c16.04-.1,24.25-7.908,28.312-14.445l-.219-.137c-4.029,6.482-12.173,14.229-28.1,14.323h-.22c-12.56,0-20.623-6.814-25.183-12.55-7.992-10.054-10.4-22.754-9.447-26.755,1.449-9.548,4.994-17.57,10.538-23.844a39.8,39.8,0,0,1,18.94-11.824A47.233,47.233,0,0,1,224.774,85a43.6,43.6,0,0,1,21.489,13.4c6.618,7.713,15.808,24.8,3,52.584l.235.108C262.366,123.168,253.117,105.982,246.46,98.222Z" transform="translate(-169.398 -82.959)"/>
      </g>
      <g id="Group_6" data-name="Group 6" transform="translate(43.18 59.39)">
        <path id="Path_7" data-name="Path 7" class="cls-1" d="M243.977,153.779A18.562,18.562,0,0,0,231.487,143c-6.577-.87-11.879,1.51-14.936,6.7-3.467,5.891-3.163,14.269.71,19.49a11.81,11.81,0,0,0,9.852,4.875,17.181,17.181,0,0,0,4.047-.509,24.964,24.964,0,0,0,6.093-4.727l-.187-.178A25.554,25.554,0,0,1,231.1,173.3c-5.718,1.385-10.559-.13-13.63-4.269-3.814-5.142-4.113-13.4-.695-19.2,3-5.1,8.215-7.433,14.663-6.58a18.3,18.3,0,0,1,12.3,10.631,19.882,19.882,0,0,1-.544,16.951l.227.124A20.148,20.148,0,0,0,243.977,153.779Z" transform="translate(-214.14 -142.821)"/>
      </g>
      <g id="Group_7" data-name="Group 7" transform="translate(48.621 69.218)">
        <path id="Path_8" data-name="Path 8" class="cls-1" d="M245.835,170.761a6.762,6.762,0,0,0-2.648-4.793c-3.858-3.749-8.324-5.036-12.253-3.532a9.844,9.844,0,0,0-6.253,8.341c-.246,3.583,1.733,6.8,5.447,8.843a12.119,12.119,0,0,0,4.075.8,6,6,0,0,0,5.6-3.286l.008,0h0a.765.765,0,0,0,.066-.119c.007-.013.014-.026.022-.039l.007-.017c.007-.019.016-.038.024-.057l-.009,0c1.752-3.611.819-9.251-1.892-11.268-1.745-1.3-3.892-.874-6.053,1.2-4.454,4.934-3.5,6.437-2.935,7.335.245.387.368.582.013.93l-.051.05.015.07a3.828,3.828,0,0,0,3.228,2.828c1.877.4,4.4-.053,5.637-1.669l.008,0,.022-.028c.009-.011.027-.038.043-.055l.006-.006,0,0,0,0,.016-.012c.011-.018.021-.035.034-.052l.039-.054-.168-.067-.094-.038-.059.082a5.5,5.5,0,0,1-5.435,1.649,3.6,3.6,0,0,1-3.013-2.563c.436-.468.211-.824-.027-1.2-.529-.836-1.413-2.235,2.9-7.017,2.632-2.52,4.559-2.026,5.713-1.168,2.631,1.956,3.524,7.453,1.8,10.967l-.011,0c0,.01-.008.02-.013.029s-.018.027-.026.042-.022.038-.031.058-.031.069-.047.1l.009,0c-.99,1.84-3.488,4.439-9.324,2.342-3.6-1.981-5.534-5.112-5.3-8.59a9.579,9.579,0,0,1,6.088-8.116,9.219,9.219,0,0,1,3.3-.607c2.355,0,5.393.887,8.687,4.088a6.523,6.523,0,0,1,2.564,4.615c.109,2.154-1.026,4.5-3.374,6.986l-.041-.016a.433.433,0,0,1-.027.051l.023-.03-.025.033s0,.008-.006.012-.006,0-.008.008-.024.031-.035.044l0,.006,0,0-.006.006,0,0h0a.421.421,0,0,1-.1.085l.218.08.079.028.058-.061C244.77,175.443,245.948,173.007,245.835,170.761Z" transform="translate(-224.66 -161.822)"/>
      </g>
      <g id="Group_8" data-name="Group 8" transform="translate(56.357 79.698)">
        <path id="Path_9" data-name="Path 9" class="cls-1" d="M243.384,185.43l-.086-.038c-3.419-1.531-3.758-2.186-3.67-2.585.077-.349.517-.752,3.284-.719l.059.015a2.054,2.054,0,0,1,1.2,1.377,2.373,2.373,0,0,1-.729,1.88Zm-.724-3.085c-2.4,0-2.745.358-2.78.516-.053.242.326.854,3.435,2.255a2.058,2.058,0,0,0,.605-1.59,1.8,1.8,0,0,0-1.043-1.18Z" transform="translate(-239.616 -182.085)"/>
      </g>
      <g id="Group_9" data-name="Group 9" transform="translate(33.805 46.639)">
        <path id="Path_10" data-name="Path 10" class="cls-1" d="M244.526,127.409a20.533,20.533,0,0,0-13.965-8.942c-13.36-2.143-29.342,7.475-33.536,20.179a18.842,18.842,0,0,0,1.15,14.859c2.779,5.382,8.117,10.15,15.868,14.172l.041.013a29.224,29.224,0,0,0,4.131.3c7.449,0,13.328-3.145,16.457-8.94l-.228-.124c-3.63,6.724-11.029,9.822-20.3,8.508-7.692-4-12.986-8.723-15.738-14.051a18.592,18.592,0,0,1-1.135-14.66c1.961-5.94,6.765-11.573,13.178-15.456,6.447-3.9,13.764-5.56,20.073-4.548a20.282,20.282,0,0,1,13.793,8.832c3.872,5.663,5.84,13.665,5.85,23.787-.031.113-.067.263-.112.447a36.448,36.448,0,0,1-4.4,10.792l.219.137A36.674,36.674,0,0,0,250.3,151.85c.046-.19.084-.344.114-.459l0-.033C250.413,141.176,248.43,133.118,244.526,127.409Z" transform="translate(-196.014 -118.167)"/>
      </g>
    </g>
  </g>
</svg>
